<svg width="608" height="453" viewBox="0 0 608 453" fill="none" xmlns="http://www.w3.org/2000/svg">
<path d="M451.587 360.132C465.407 336.794 452.803 296.476 440.976 278.28C427.362 257.349 403.38 248.415 380.99 241.632C352.742 233.123 336.575 226.681 325.903 196.123C316.507 169.224 312.703 140.611 300.596 114.891C275.848 62.2953 235.262 8.9222 172.809 28.0665C115.534 45.6307 81.1598 104.644 112.556 160.557C139.055 207.756 201.508 169.54 210.296 233.67C218.488 293.401 150.493 344.853 189.353 401.411C228.006 457.677 280.966 373.6 322.33 350.639C348.888 335.895 352.936 371.303 374.025 383.592C399.502 398.409 434.108 389.669 451.587 360.132Z" fill="#39BBD5"/>
<path opacity="0.9" d="M451.587 360.132C465.407 336.794 452.803 296.476 440.976 278.28C427.362 257.349 403.38 248.415 380.99 241.632C352.742 233.123 336.575 226.681 325.903 196.123C316.507 169.224 312.703 140.611 300.596 114.891C275.848 62.2953 235.262 8.9222 172.809 28.0665C115.534 45.6307 81.1598 104.644 112.556 160.557C139.055 207.756 201.508 169.54 210.296 233.67C218.488 293.401 150.493 344.853 189.353 401.411C228.006 457.677 280.966 373.6 322.33 350.639C348.888 335.895 352.936 371.303 374.025 383.592C399.502 398.409 434.108 389.669 451.587 360.132Z" fill="white"/>
<path d="M303.878 452.851C434.038 452.851 539.554 446.691 539.554 439.092C539.554 431.492 434.038 425.332 303.878 425.332C173.718 425.332 68.2026 431.492 68.2026 439.092C68.2026 446.691 173.718 452.851 303.878 452.851Z" fill="#F5F5F5"/>
<path d="M279.727 435.908C279.849 436.283 279.879 436.682 279.813 437.07C279.748 437.459 279.588 437.826 279.349 438.14C279.11 438.453 278.798 438.704 278.44 438.87C278.082 439.036 277.69 439.112 277.296 439.093H107.975C102.687 439.093 102.687 404.657 107.975 404.657H277.344C277.737 404.638 278.128 404.715 278.484 404.88C278.841 405.046 279.152 405.295 279.391 405.607C279.63 405.919 279.79 406.284 279.856 406.671C279.923 407.058 279.896 407.456 279.775 407.83C277.66 414.393 277.66 429.356 279.727 435.908Z" fill="#39BBD5"/>
<path opacity="0.8" d="M279.484 408.681H176.736C172.689 408.681 172.689 435.069 176.736 435.069H279.484C277.745 428.445 277.745 415.293 279.484 408.681Z" fill="white"/>
<path opacity="0.2" d="M171.619 435.908C171.742 436.283 171.772 436.682 171.706 437.07C171.64 437.459 171.48 437.826 171.241 438.14C171.002 438.453 170.69 438.704 170.332 438.87C169.975 439.036 169.582 439.112 169.188 439.093H107.975C102.687 439.093 102.687 404.657 107.975 404.657H169.237C169.629 404.638 170.02 404.715 170.377 404.88C170.733 405.046 171.044 405.295 171.283 405.607C171.522 405.919 171.682 406.284 171.749 406.671C171.816 407.058 171.788 407.456 171.668 407.83C169.553 414.393 169.553 429.356 171.619 435.908Z" fill="black"/>
<path d="M134.084 404.657H120.093C114.806 404.657 114.806 439.093 120.093 439.093H134.084C128.845 439.093 128.845 404.657 134.084 404.657Z" fill="#39BBD5"/>
<path d="M145.109 404.657H139.615C134.327 404.657 134.327 439.093 139.615 439.093H145.109C139.785 439.093 139.785 404.657 145.109 404.657Z" fill="#39BBD5"/>
<path d="M98.1046 401.801C97.5211 403.211 98.9555 404.657 100.9 404.657H253.18C259.391 404.657 259.391 373.698 253.18 373.698H100.888C98.9433 373.698 97.509 375.133 98.0924 376.555C100.523 382.45 100.523 395.906 98.1046 401.801Z" fill="#263238"/>
<path opacity="0.2" d="M98.1046 401.801C97.5211 403.211 98.9555 404.657 100.9 404.657H175.569C181.78 404.657 181.78 373.698 175.569 373.698H100.888C98.9433 373.698 97.509 375.133 98.0924 376.555C100.523 382.45 100.523 395.906 98.1046 401.801Z" fill="black"/>
<path opacity="0.8" d="M98.3716 377.309H172.518C177.27 377.309 177.27 401.035 172.518 401.035H98.3716C100.414 395.043 100.414 383.265 98.3716 377.309Z" fill="white"/>
<path opacity="0.2" d="M197.145 380.602C196.683 379.229 198.02 377.892 199.867 377.892H242.495C247.017 377.892 247.017 400.452 242.495 400.452H199.867C198.02 400.452 196.683 399.127 197.145 397.753C198.603 392.129 198.603 386.226 197.145 380.602Z" fill="white"/>
<path d="M505.326 387.981C505.46 388.392 505.499 388.828 505.439 389.257C505.378 389.685 505.22 390.094 504.978 390.452C504.735 390.81 504.413 391.107 504.037 391.322C503.661 391.536 503.242 391.661 502.81 391.688H323.886C318.295 391.688 318.295 351.576 323.886 351.576H502.81C503.234 351.605 503.647 351.73 504.017 351.941C504.387 352.151 504.705 352.443 504.946 352.793C505.188 353.144 505.348 353.544 505.414 353.965C505.479 354.385 505.449 354.815 505.326 355.223C503.15 362.941 503.15 380.36 505.326 387.981Z" fill="#39BBD5"/>
<path opacity="0.5" d="M505.326 387.981C505.46 388.392 505.499 388.828 505.439 389.257C505.378 389.685 505.22 390.094 504.978 390.452C504.735 390.81 504.413 391.107 504.037 391.322C503.661 391.536 503.242 391.661 502.81 391.688H323.886C318.295 391.688 318.295 351.576 323.886 351.576H502.81C503.234 351.605 503.647 351.73 504.017 351.941C504.387 352.151 504.705 352.443 504.946 352.793C505.188 353.144 505.348 353.544 505.414 353.965C505.479 354.385 505.449 354.815 505.326 355.223C503.15 362.941 503.15 380.36 505.326 387.981Z" fill="white"/>
<path opacity="0.8" d="M505.082 356.292H396.525C392.246 356.292 392.246 386.996 396.525 386.996H505.082C503.223 379.302 503.223 363.998 505.082 356.292Z" fill="white"/>
<path opacity="0.6" d="M391.116 387.981C391.251 388.392 391.289 388.828 391.229 389.257C391.169 389.685 391.011 390.094 390.768 390.452C390.525 390.81 390.203 391.107 389.828 391.322C389.452 391.536 389.032 391.661 388.6 391.688H323.886C318.295 391.688 318.295 351.576 323.886 351.576H388.6C389.025 351.605 389.438 351.73 389.808 351.941C390.178 352.151 390.495 352.443 390.737 352.793C390.979 353.144 391.138 353.544 391.204 353.965C391.27 354.385 391.24 354.815 391.116 355.223C388.965 362.941 388.965 380.36 391.116 387.981Z" fill="#39BBD5"/>
<path opacity="0.5" d="M364.861 354.578C364.987 354.264 365.039 353.925 365.01 353.587C364.982 353.25 364.875 352.924 364.698 352.635C364.52 352.347 364.278 352.104 363.989 351.926C363.701 351.748 363.375 351.641 363.037 351.612H338.362C332.771 351.612 332.771 391.724 338.362 391.724H363.037C363.375 391.694 363.701 391.585 363.99 391.406C364.278 391.227 364.52 390.983 364.697 390.693C364.874 390.404 364.981 390.077 365.01 389.739C365.038 389.401 364.987 389.061 364.861 388.746C362.369 381.295 362.369 362.005 364.861 354.578Z" fill="white"/>
<path d="M492.49 434.68C492.634 435.214 492.649 435.773 492.533 436.313C492.418 436.853 492.175 437.358 491.826 437.786C491.477 438.213 491.031 438.552 490.525 438.773C490.019 438.994 489.467 439.091 488.916 439.056H303.016C295.078 439.056 295.066 391.651 303.016 391.651H488.989C489.54 391.617 490.091 391.714 490.598 391.935C491.104 392.156 491.55 392.494 491.899 392.922C492.248 393.35 492.491 393.854 492.606 394.394C492.721 394.934 492.707 395.494 492.563 396.027C489.39 405.058 489.402 425.661 492.49 434.68Z" fill="#39BBD5"/>
<path opacity="0.2" d="M492.49 434.68C492.634 435.214 492.649 435.773 492.533 436.313C492.418 436.853 492.175 437.358 491.826 437.786C491.477 438.213 491.031 438.552 490.525 438.773C490.019 438.994 489.467 439.091 488.916 439.056H303.016C295.078 439.056 295.066 391.651 303.016 391.651H488.989C489.54 391.617 490.091 391.714 490.598 391.935C491.104 392.156 491.55 392.494 491.899 392.922C492.248 393.35 492.491 393.854 492.606 394.394C492.721 394.934 492.707 395.494 492.563 396.027C489.39 405.058 489.402 425.661 492.49 434.68Z" fill="white"/>
<path opacity="0.8" d="M492.125 397.194H379.727C373.649 397.194 373.649 433.514 379.727 433.514H492.137C489.536 424.41 489.536 406.311 492.125 397.194Z" fill="white"/>
<path opacity="0.6" d="M372.045 434.704C372.191 435.236 372.208 435.796 372.094 436.336C371.981 436.876 371.74 437.381 371.391 437.809C371.043 438.237 370.597 438.576 370.091 438.797C369.585 439.018 369.034 439.115 368.483 439.08H303.016C295.078 439.08 295.066 391.675 303.016 391.675H368.483C369.034 391.64 369.586 391.737 370.092 391.958C370.598 392.179 371.044 392.518 371.393 392.945C371.742 393.373 371.985 393.878 372.1 394.418C372.216 394.958 372.201 395.518 372.057 396.051C368.957 405.082 368.957 425.673 372.045 434.704Z" fill="#39BBD5"/>
<path opacity="0.5" d="M332.832 393.328C332.934 393.155 332.985 392.956 332.981 392.755C332.977 392.554 332.918 392.358 332.81 392.189C332.702 392.019 332.55 391.883 332.369 391.794C332.189 391.706 331.987 391.669 331.787 391.687H320.665C312.74 391.687 312.74 439.092 320.665 439.092H331.836C332.036 439.111 332.237 439.074 332.418 438.985C332.598 438.897 332.751 438.76 332.859 438.591C332.967 438.421 333.026 438.225 333.03 438.024C333.034 437.823 332.982 437.625 332.881 437.451C328.055 430.122 328.055 400.646 332.832 393.328Z" fill="white"/>
<path opacity="0.5" d="M350.19 393.328C350.29 393.154 350.34 392.955 350.336 392.754C350.332 392.553 350.273 392.357 350.165 392.187C350.058 392.017 349.906 391.879 349.726 391.789C349.546 391.699 349.345 391.66 349.144 391.675H338.022C330.097 391.675 330.097 439.08 338.022 439.08H349.144C349.344 439.096 349.543 439.057 349.722 438.968C349.901 438.878 350.052 438.742 350.158 438.573C350.264 438.404 350.323 438.208 350.326 438.009C350.329 437.809 350.278 437.612 350.178 437.439C345.413 430.122 345.413 400.634 350.19 393.328Z" fill="white"/>
<path d="M490.667 326.39C490.451 323.015 489.658 319.701 488.321 316.593L489.415 316.059C490.804 319.298 491.627 322.751 491.846 326.269L490.667 326.39Z" fill="#39BBD5"/>
<path d="M483.045 311.33H452.852V312.546H483.045V311.33Z" fill="#39BBD5"/>
<path d="M286.266 348.293C285.646 349.947 287.166 351.612 289.22 351.612H483.045C489.597 351.612 489.597 315.584 483.045 315.584H289.22C287.166 315.584 285.646 317.261 286.266 318.914C288.819 325.758 288.819 341.426 286.266 348.293Z" fill="#39BBD5"/>
<path opacity="0.2" d="M286.266 348.293C285.646 349.947 287.166 351.612 289.22 351.612H401.047C407.611 351.612 407.611 315.584 401.047 315.584H289.22C287.166 315.584 285.646 317.261 286.266 318.914C288.819 325.758 288.819 341.426 286.266 348.293Z" fill="black"/>
<path opacity="0.8" d="M286.558 319.802H397.801C402.833 319.802 402.833 347.406 397.801 347.406H286.558C288.709 340.478 288.709 326.73 286.558 319.802Z" fill="white"/>
<path opacity="0.2" d="M423.837 323.618C423.351 322.026 424.761 320.482 426.706 320.482H471.753C476.53 320.482 476.53 346.725 471.753 346.725H426.706C424.761 346.725 423.351 345.182 423.837 343.577C425.43 338.533 425.43 328.675 423.837 323.618Z" fill="white"/>
<path d="M268.143 52.2664C262.661 58.1373 249.278 52.2664 247.236 68.4327C245.024 85.8632 253.411 94.238 242.581 98.8205C225.563 105.931 213.408 134.35 237.038 145.01C260.667 155.67 310.99 144.499 305.325 122.778C299.661 101.057 300.779 89.4003 307.465 79.1657C316.277 65.637 314.393 48.2552 307.209 41.9588C296.027 32.1132 280.577 38.8958 268.143 52.2664Z" fill="#263238"/>
<path d="M297.388 122.195C297.295 122.198 297.204 122.166 297.134 122.105C297.064 122.044 297.02 121.959 297.011 121.866C297.002 121.818 297.004 121.767 297.015 121.719C297.027 121.671 297.048 121.625 297.077 121.586C297.107 121.546 297.144 121.512 297.187 121.488C297.23 121.463 297.278 121.447 297.327 121.441C302.019 120.797 304.815 119.642 306.127 117.794C307.756 115.497 307.051 112.082 306.127 107.754C304.693 100.717 302.712 91.0775 309.032 78.8981C316.702 64.1296 313.894 47.939 306.711 42.6393C306.631 42.5809 306.577 42.4933 306.561 42.3955C306.545 42.2976 306.568 42.1975 306.626 42.1167C306.686 42.0358 306.776 41.9817 306.876 41.9658C306.976 41.9499 307.078 41.9735 307.16 42.0316C314.648 47.5136 317.541 64.1418 309.701 79.2506C303.514 91.1869 305.459 100.68 306.869 107.608C307.793 112.106 308.522 115.667 306.699 118.232C305.264 120.262 302.311 121.514 297.4 122.195H297.388Z" fill="#263238"/>
<path d="M236.101 101.142C235.333 101.138 234.566 101.09 233.804 100.996C233.754 100.99 233.706 100.974 233.663 100.949C233.619 100.925 233.581 100.891 233.551 100.852C233.52 100.812 233.498 100.767 233.485 100.719C233.472 100.67 233.469 100.62 233.476 100.57C233.482 100.521 233.497 100.473 233.522 100.429C233.547 100.386 233.58 100.348 233.62 100.317C233.659 100.287 233.705 100.264 233.753 100.251C233.801 100.238 233.852 100.235 233.901 100.242C237.353 100.668 239.857 100.157 241.547 98.6741C244.707 95.8906 244.756 90.0683 244.792 83.3222C244.792 75.6888 244.901 67.0465 249.849 61.1513C249.881 61.113 249.92 61.0813 249.964 61.0582C250.008 61.035 250.056 61.0207 250.106 61.0162C250.156 61.0117 250.206 61.017 250.253 61.0318C250.301 61.0467 250.345 61.0707 250.383 61.1027C250.422 61.1346 250.453 61.1737 250.477 61.2179C250.5 61.2621 250.514 61.3103 250.519 61.36C250.523 61.4097 250.518 61.4597 250.503 61.5073C250.488 61.555 250.464 61.5992 250.432 61.6375C245.655 67.3261 245.57 75.8225 245.57 83.3344C245.57 90.2506 245.485 96.231 242.069 99.2454C240.385 100.598 238.257 101.274 236.101 101.142Z" fill="#263238"/>
<path d="M355.404 315.559C347.296 315.461 344.111 314.951 340.38 315.012C336.648 315.073 335.761 315.729 331.871 315.559C329.246 315.449 329.234 312.325 330.243 310.186C331.033 308.509 332.005 306.819 332.904 304.729L343.188 305.482C344.573 309.396 351.453 311.073 357.482 312.459C359.877 313.03 358.649 315.595 355.404 315.559Z" fill="#39BBD5"/>
<path d="M301.788 166.233C301.788 166.233 328.991 189.631 356.486 214.452C368.106 224.966 343.735 305.129 343.735 305.129C343.225 306.843 334.157 304.4 332.796 303.051C332.796 303.051 331.41 240.829 337.305 228.297C276.335 212.884 266.806 182.946 266.806 182.946L271.182 164.373L301.788 166.233Z" fill="#263238"/>
<path opacity="0.2" d="M270.829 190.325C274.241 195.095 278.285 199.38 282.85 203.063C288.928 195.952 287.226 184.466 287.226 184.466L270.829 190.325Z" fill="black"/>
<path d="M345.85 301.665C345.68 302.881 345.388 305.032 345.23 306.624C345.206 306.882 345.084 307.121 344.89 307.293C344.696 307.464 344.444 307.556 344.185 307.548C340.117 307.229 336.089 306.529 332.152 305.458C331.962 305.405 331.794 305.293 331.674 305.137C331.553 304.982 331.486 304.791 331.483 304.595L331.398 300.158C331.397 300.014 331.427 299.871 331.485 299.739C331.543 299.607 331.628 299.488 331.734 299.391C331.841 299.293 331.966 299.219 332.103 299.174C332.24 299.128 332.385 299.111 332.528 299.125L345.072 300.644C345.192 300.657 345.307 300.695 345.411 300.754C345.516 300.813 345.607 300.893 345.68 300.988C345.753 301.084 345.805 301.193 345.834 301.309C345.864 301.426 345.869 301.547 345.85 301.665Z" fill="#263238"/>
<path opacity="0.3" d="M345.85 301.665C345.68 302.881 345.388 305.032 345.23 306.624C345.206 306.882 345.084 307.121 344.89 307.293C344.696 307.464 344.444 307.556 344.185 307.548C340.117 307.229 336.089 306.529 332.152 305.458C331.962 305.405 331.794 305.293 331.674 305.137C331.553 304.982 331.486 304.791 331.483 304.595L331.398 300.158C331.397 300.014 331.427 299.871 331.485 299.739C331.543 299.607 331.628 299.488 331.734 299.391C331.841 299.293 331.966 299.219 332.103 299.174C332.24 299.128 332.385 299.111 332.528 299.125L345.072 300.644C345.192 300.657 345.307 300.695 345.411 300.754C345.516 300.813 345.607 300.893 345.68 300.988C345.753 301.084 345.805 301.193 345.834 301.309C345.864 301.426 345.869 301.547 345.85 301.665Z" fill="white"/>
<path d="M236.381 373.697C228.14 373.697 225.441 370.597 220.835 369.746C216.945 369.017 215.912 369.357 212.776 368.81C210.15 368.348 209.944 366.549 211.56 363.887C212.615 362.047 213.51 360.119 214.234 358.126L226.73 358.953C228.031 362.295 231.033 369.09 235.615 369.892C239.93 370.731 239.663 373.697 236.381 373.697Z" fill="#39BBD5"/>
<path d="M299.904 166.16C299.904 166.16 271.157 217.272 259.585 248.887C247.43 282.095 228.079 336.404 226.681 358.952C224.615 359.937 217.832 359.56 214.186 358.125C214.186 358.125 210.807 280.333 234.205 249.167C239.784 182.423 249.047 171.751 258.892 163.619L299.904 166.16Z" fill="#263238"/>
<path d="M228.189 354.345C228.039 355.884 227.999 357.432 228.067 358.976C228.084 359.245 227.993 359.51 227.816 359.712C227.638 359.915 227.388 360.039 227.119 360.058C222.463 360.483 215.973 358.988 213.918 358.478C213.727 358.43 213.558 358.321 213.435 358.167C213.312 358.014 213.242 357.824 213.238 357.627L213.08 353.275C213.078 353.132 213.105 352.99 213.161 352.859C213.217 352.727 213.299 352.608 213.403 352.51C213.507 352.412 213.63 352.336 213.765 352.288C213.9 352.24 214.043 352.22 214.186 352.23L227.362 353.361C227.481 353.37 227.598 353.403 227.704 353.457C227.811 353.512 227.905 353.587 227.982 353.679C228.059 353.771 228.117 353.877 228.153 353.991C228.188 354.106 228.2 354.226 228.189 354.345Z" fill="#263238"/>
<path opacity="0.3" d="M228.189 354.345C228.039 355.884 227.999 357.432 228.067 358.976C228.084 359.245 227.993 359.51 227.816 359.712C227.638 359.915 227.388 360.039 227.119 360.058C222.463 360.483 215.973 358.988 213.918 358.478C213.727 358.43 213.558 358.321 213.435 358.167C213.312 358.014 213.242 357.824 213.238 357.627L213.08 353.275C213.078 353.132 213.105 352.99 213.161 352.859C213.217 352.727 213.299 352.608 213.403 352.51C213.507 352.412 213.63 352.336 213.765 352.288C213.9 352.24 214.043 352.22 214.186 352.23L227.362 353.361C227.481 353.37 227.598 353.403 227.704 353.457C227.811 353.512 227.905 353.587 227.982 353.679C228.059 353.771 228.117 353.877 228.153 353.991C228.188 354.106 228.2 354.226 228.189 354.345Z" fill="white"/>
<path d="M307.525 116.02C308.74 118.317 310.053 120.882 311.39 123.313C312.727 125.744 314.077 128.175 315.438 130.545C318.185 135.322 321.054 140.002 324.129 144.414L322.476 142.943C323.696 143.801 325.04 144.465 326.463 144.912C328.183 145.489 329.947 145.928 331.738 146.225C333.61 146.566 335.555 146.796 337.536 146.979C339.517 147.161 341.596 147.271 343.492 147.392H343.747C344.537 147.437 345.286 147.756 345.866 148.294C346.446 148.831 346.82 149.554 346.925 150.338C347.03 151.122 346.859 151.918 346.441 152.589C346.023 153.26 345.384 153.765 344.635 154.017C342.463 154.739 340.24 155.3 337.986 155.694C335.72 156.097 333.43 156.345 331.13 156.435C328.691 156.529 326.248 156.383 323.837 155.998C321.116 155.588 318.485 154.716 316.058 153.421C315.553 153.145 315.104 152.779 314.733 152.339L314.405 151.95C312.472 149.641 310.588 147.283 308.862 144.864C307.136 142.445 305.446 140.002 303.878 137.571C302.31 135.14 300.791 132.551 299.357 129.986C297.922 127.421 296.561 124.881 295.26 122.073C294.578 120.477 294.53 118.681 295.127 117.052C295.725 115.422 296.922 114.083 298.474 113.307C300.026 112.53 301.817 112.376 303.479 112.876C305.141 113.376 306.549 114.492 307.416 115.995L307.525 116.02Z" fill="#FFB573"/>
<path d="M300.816 106.211C308.753 108.824 310.041 112.386 314.393 125.538C311.5 133.426 299.807 137.425 299.807 137.425C299.807 137.425 285.998 114.938 300.816 106.211Z" fill="#39BBD5"/>
<path d="M311.682 123.325C311.232 127.677 310.114 132.867 307.768 143.065C305.945 151.719 305.92 168.591 303.003 169.478C297.399 172.249 283.372 171.18 258.892 163.619C259.67 150.978 261.141 142.396 256.935 113.394C256.67 111.874 256.748 110.314 257.162 108.827C257.577 107.34 258.317 105.965 259.33 104.801C260.343 103.636 261.603 102.712 263.018 102.096C264.433 101.48 265.968 101.187 267.51 101.239C269.285 101.239 271.157 101.385 273.065 101.555C279.797 101.96 286.492 102.85 293.097 104.217C295.248 104.703 297.472 105.275 299.587 105.858C303.312 106.922 306.553 109.244 308.758 112.429C310.963 115.614 311.997 119.464 311.682 123.325Z" fill="#39BBD5"/>
<path d="M225.988 173.6L228.419 171.375C228.872 170.962 229.218 170.445 229.43 169.87C229.641 169.295 229.711 168.677 229.635 168.069L228.966 162.271C228.838 161.131 228.441 160.039 227.807 159.083C227.173 158.128 226.32 157.337 225.32 156.777L224.104 156.084C219.765 159.5 217.589 166.379 217.589 166.379L216.75 168.276C216.566 168.659 216.46 169.075 216.437 169.5C216.415 169.925 216.478 170.35 216.622 170.75C216.765 171.15 216.987 171.518 217.274 171.832C217.561 172.146 217.908 172.4 218.294 172.578L222.026 174.28C222.682 174.56 223.404 174.644 224.107 174.524C224.81 174.403 225.463 174.082 225.988 173.6Z" fill="#FFB573"/>
<path d="M353.581 144.402L350.469 143.187C349.893 142.969 349.274 142.893 348.662 142.965C348.051 143.037 347.466 143.254 346.956 143.6L342.094 146.857C341.14 147.499 340.354 148.361 339.802 149.37C339.25 150.379 338.948 151.506 338.922 152.655V154.102C343.942 156.387 351.077 155.147 351.077 155.147L353.143 155.026C353.569 155.012 353.987 154.913 354.374 154.737C354.761 154.56 355.109 154.309 355.398 153.997C355.688 153.685 355.912 153.319 356.059 152.92C356.206 152.52 356.273 152.096 356.255 151.671L356.061 147.575C356.004 146.861 355.739 146.179 355.298 145.615C354.857 145.051 354.26 144.629 353.581 144.402Z" fill="#FFB573"/>
<path d="M264.18 117.308L262.624 118.025L260.922 118.803C259.792 119.35 258.673 119.922 257.555 120.505C255.306 121.72 253.118 122.936 250.967 124.212C248.815 125.489 246.737 126.911 244.719 128.357C242.701 129.804 240.83 131.384 239.006 133L239.809 131.979C239.216 132.851 238.696 133.77 238.253 134.726C237.718 135.833 237.219 137.036 236.733 138.264C235.761 140.695 234.813 143.296 233.938 145.909C233.062 148.523 232.175 151.172 231.312 153.822L228.687 161.808C228.432 162.592 227.901 163.258 227.193 163.68C226.485 164.103 225.647 164.254 224.836 164.105C224.025 163.957 223.295 163.519 222.783 162.873C222.27 162.226 222.01 161.416 222.05 160.593C222.184 157.663 222.451 154.819 222.779 151.95C223.107 149.082 223.521 146.225 223.995 143.357C224.469 140.488 225.089 137.607 225.879 134.69C226.268 133.231 226.693 131.773 227.228 130.241C227.793 128.555 228.517 126.927 229.392 125.379C229.545 125.126 229.72 124.886 229.914 124.662L230.206 124.358C232.208 122.151 234.352 120.076 236.624 118.147C238.863 116.244 241.208 114.47 243.65 112.835C246.058 111.202 248.554 109.701 251.125 108.338C252.413 107.657 253.714 107.013 255.039 106.381C255.707 106.077 256.364 105.761 257.057 105.469C257.749 105.177 258.382 104.922 259.245 104.594C260.9 103.932 262.749 103.947 264.393 104.636C266.037 105.325 267.345 106.633 268.034 108.277C268.723 109.921 268.738 111.771 268.076 113.426C267.414 115.081 266.128 116.41 264.496 117.126L264.18 117.308Z" fill="#FFB573"/>
<path d="M275.922 104.4C269.966 100.133 266.343 99.6715 251.927 105.931C250.214 114.999 255.829 128.309 255.829 128.309C255.829 128.309 275.01 118.317 275.922 104.4Z" fill="#39BBD5"/>
<path d="M277.478 79.1416C278.365 85.8148 278.936 97.9091 274.171 101.653C274.171 101.653 280.395 101.543 292.295 111.28C296.756 106.418 294.203 104.315 294.203 104.315C287.117 101.629 287.615 96.2682 289.159 91.3696L277.478 79.1416Z" fill="#FFB573"/>
<path d="M289.778 109.31C285.439 109.31 283.239 115.619 283.239 115.619C283.239 115.619 272.81 107.305 271.388 101.458C272.772 100.9 274.127 100.271 275.448 99.5742C275.448 99.5742 287.615 106.515 289.778 109.31Z" fill="white"/>
<path d="M293.936 109.152C293.936 109.152 297.218 110.367 298.299 115.229C300.524 105.967 296.184 104.509 296.184 104.509C295.097 103.693 293.745 103.312 292.392 103.439C293.279 104.058 293.92 104.97 294.203 106.015C294.485 107.059 294.39 108.17 293.936 109.152Z" fill="white"/>
<path opacity="0.2" d="M282.242 84.125L289.146 91.4181C288.77 92.5581 288.498 93.7298 288.332 94.9187C285.609 94.153 282.011 90.6158 281.89 87.6257C281.791 86.447 281.91 85.2602 282.242 84.125Z" fill="black"/>
<path d="M269.99 69.4298C272.421 79.8102 273.309 84.2469 279.544 88.9874C288.916 96.1103 301.083 91.4913 301.739 80.7462C302.323 71.0221 298.166 55.7066 287.153 52.7894C284.82 52.0879 282.341 52.0221 279.974 52.5989C277.606 53.1756 275.435 54.374 273.686 56.0702C271.936 57.7664 270.671 59.899 270.022 62.2476C269.372 64.5961 269.361 67.0756 269.99 69.4298Z" fill="#FFB573"/>
<path d="M272.02 76.8929C275.836 75.021 279.884 65.8196 274.451 61.4681C278.936 62.3068 284.078 61.1034 288.83 57.4326C295.029 52.5705 304.158 64.6406 301.156 57.5541C296.828 47.3438 283.786 44.7912 271.983 53.2755C260.181 61.7598 261.019 72.0795 272.02 76.8929Z" fill="#263238"/>
<path d="M268.786 74.8146C268.745 74.8104 268.706 74.7931 268.675 74.7651C268.644 74.7371 268.623 74.7 268.615 74.6592C268.607 74.6184 268.612 74.576 268.63 74.5384C268.647 74.5007 268.677 74.4697 268.713 74.4499C271.752 73.1372 284.649 70.3901 285.196 70.2807C285.221 70.2735 285.247 70.2716 285.272 70.2752C285.298 70.2788 285.322 70.2878 285.344 70.3016C285.366 70.3154 285.385 70.3337 285.399 70.3552C285.413 70.3768 285.423 70.4011 285.427 70.4266C285.434 70.4747 285.423 70.5238 285.396 70.5644C285.369 70.6049 285.328 70.6338 285.281 70.6454C285.147 70.6454 271.91 73.5018 268.859 74.8024L268.786 74.8146Z" fill="white"/>
<path opacity="0.2" d="M284.431 70.4995C283.128 69.9265 281.651 69.8916 280.322 70.4022C281.672 70.7011 283.068 70.7341 284.431 70.4995Z" fill="black"/>
<path opacity="0.2" d="M284.321 71.423C283.689 71.2896 283.035 71.2955 282.405 71.4403C281.775 71.5852 281.185 71.8655 280.674 72.2617C281.935 72.2416 283.178 71.9558 284.321 71.423Z" fill="black"/>
<path d="M286.691 70.353C286.861 71.2404 287.457 71.8967 288.028 71.8238C288.599 71.7509 288.915 70.9851 288.745 70.0978C288.575 69.2105 287.967 68.5662 287.408 68.627C286.849 68.6878 286.521 69.4779 286.691 70.353Z" fill="#263238"/>
<path d="M297.363 69.1983C297.534 70.0734 298.141 70.7298 298.7 70.669C299.26 70.6083 299.588 69.8182 299.418 68.943C299.247 68.0678 298.652 67.3993 298.081 67.4722C297.509 67.5452 297.193 68.3109 297.363 69.1983Z" fill="#263238"/>
<path d="M297.801 67.5578L299.77 66.6826C299.77 66.6826 299.016 68.4694 297.801 67.5578Z" fill="#263238"/>
<path d="M295.37 70.8877C296.422 72.8707 297.721 74.7126 299.235 76.3697C298.821 76.7176 298.334 76.9691 297.811 77.1057C297.287 77.2424 296.74 77.2608 296.208 77.1597L295.37 70.8877Z" fill="#ED893E"/>
<path d="M291.541 81.0862C292.03 81.1279 292.522 81.1279 293.012 81.0862C293.045 81.0819 293.077 81.0708 293.106 81.0535C293.135 81.0361 293.159 81.0131 293.179 80.9856C293.198 80.9582 293.212 80.9271 293.219 80.8942C293.225 80.8613 293.225 80.8274 293.218 80.7945C293.206 80.7247 293.168 80.662 293.112 80.6191C293.055 80.5762 292.985 80.5564 292.914 80.5636C291.814 80.6968 290.698 80.5839 289.647 80.2328C288.596 79.8817 287.636 79.3013 286.837 78.5336C286.813 78.5094 286.785 78.4901 286.753 78.477C286.722 78.4638 286.688 78.457 286.655 78.457C286.621 78.457 286.587 78.4638 286.556 78.477C286.524 78.4901 286.496 78.5094 286.472 78.5336C286.426 78.5832 286.4 78.6483 286.4 78.716C286.4 78.7836 286.426 78.8488 286.472 78.8983C287.839 80.2199 289.641 80.9978 291.541 81.0862Z" fill="#263238"/>
<path d="M267.522 78.7281C268.108 79.5638 268.861 80.2688 269.734 80.7981C270.606 81.3275 271.579 81.6698 272.591 81.8033C275.119 82.0099 275.666 79.0684 274.378 76.4551C273.223 74.1091 270.513 71.1554 268.3 72.1764C266.088 73.1975 265.882 76.5766 267.522 78.7281Z" fill="#FFB573"/>
<path d="M283.275 63.656C283.343 63.656 283.41 63.6407 283.471 63.6113C283.532 63.5818 283.586 63.5389 283.628 63.4858C284.019 62.9851 284.527 62.5889 285.109 62.3323C285.69 62.0757 286.325 61.9667 286.958 62.015C287.024 62.0253 287.091 62.0219 287.156 62.0052C287.22 61.9884 287.281 61.9585 287.333 61.9175C287.385 61.8765 287.429 61.8252 287.461 61.7667C287.492 61.7082 287.512 61.6438 287.518 61.5775C287.523 61.4379 287.478 61.301 287.391 61.1917C287.304 61.0824 287.181 61.008 287.044 60.9819C286.244 60.911 285.439 61.0393 284.701 61.3553C283.963 61.6714 283.314 62.1653 282.814 62.793C282.755 62.8759 282.72 62.9736 282.714 63.075C282.708 63.1765 282.73 63.2777 282.778 63.3673C282.826 63.457 282.898 63.5315 282.986 63.5824C283.073 63.6334 283.174 63.6589 283.275 63.656Z" fill="#263238"/>
<path d="M299.332 63.206C299.397 63.2132 299.463 63.2073 299.526 63.1885C299.588 63.1697 299.647 63.1384 299.697 63.0966C299.745 63.0491 299.784 62.9923 299.81 62.9297C299.837 62.8671 299.85 62.7999 299.85 62.732C299.85 62.664 299.837 62.5968 299.81 62.5342C299.784 62.4716 299.745 62.4148 299.697 62.3673C299.172 61.7077 298.501 61.1781 297.738 60.8197C296.975 60.4613 296.14 60.2838 295.297 60.3009C295.229 60.3064 295.164 60.3261 295.105 60.3587C295.046 60.3914 294.995 60.4362 294.955 60.4903C294.914 60.5444 294.886 60.6064 294.872 60.6723C294.857 60.7381 294.857 60.8063 294.871 60.8722C294.892 61.0096 294.964 61.1343 295.071 61.2219C295.179 61.3096 295.316 61.3539 295.455 61.3463C296.123 61.3391 296.784 61.4855 297.387 61.7742C297.989 62.063 298.518 62.4863 298.931 63.0115C298.979 63.0715 299.04 63.1201 299.11 63.1537C299.179 63.1873 299.255 63.2052 299.332 63.206Z" fill="#263238"/>
<path d="M289.986 75.8593C287.421 75.8593 285.197 73.1366 284.953 69.648C284.806 68.005 285.185 66.3577 286.035 64.944C286.371 64.3448 286.845 63.8346 287.418 63.4561C287.991 63.0775 288.646 62.8417 289.329 62.7682C292.016 62.5859 294.374 65.3694 294.629 68.9795C294.884 72.5896 292.903 75.6648 290.241 75.8471L289.986 75.8593ZM289.585 63.2058H289.366C288.74 63.2775 288.141 63.4968 287.617 63.8454C287.093 64.1941 286.659 64.6623 286.351 65.2114C285.544 66.556 285.187 68.1229 285.33 69.6845C285.561 73.0758 287.761 75.6891 290.192 75.5311C292.623 75.3731 294.459 72.4559 294.228 69.0646C293.997 65.6733 291.955 63.2058 289.585 63.2058Z" fill="white"/>
<path d="M301.35 75.2026C298.785 75.2026 296.549 72.492 296.306 69.0035C296.164 67.3609 296.543 65.7153 297.388 64.2995C297.726 63.7 298.202 63.1898 298.777 62.8114C299.352 62.433 300.009 62.1973 300.694 62.1237C303.356 61.9414 305.738 64.7249 305.981 68.3228C306.123 69.9655 305.744 71.611 304.899 73.0268C304.563 73.6276 304.087 74.1388 303.511 74.5174C302.936 74.896 302.278 75.131 301.593 75.2026H301.35ZM300.949 62.5005H300.718C300.093 62.5722 299.493 62.7914 298.969 63.1401C298.445 63.4888 298.011 63.957 297.704 64.5061C296.907 65.8551 296.551 67.4183 296.683 68.9792C296.914 72.2611 298.98 74.8258 301.35 74.8258H301.569C302.195 74.757 302.796 74.5389 303.32 74.19C303.845 73.841 304.278 73.3713 304.583 72.8202C305.384 71.4775 305.741 69.9166 305.604 68.3593C305.374 65.0652 303.307 62.5005 300.949 62.5005Z" fill="white"/>
<path d="M296.586 69.5025C296.553 69.5008 296.522 69.4909 296.494 69.474C296.467 69.457 296.444 69.4334 296.428 69.4053C295.966 68.676 294.616 69.4661 294.604 69.4661C294.584 69.4793 294.561 69.4882 294.536 69.4923C294.512 69.4964 294.488 69.4955 294.464 69.4899C294.44 69.4842 294.417 69.4738 294.398 69.4592C294.378 69.4447 294.361 69.4264 294.349 69.4053C294.318 69.3699 294.301 69.3246 294.301 69.2777C294.301 69.2307 294.318 69.1854 294.349 69.15C294.422 69.15 296.026 68.1533 296.683 69.15C296.698 69.17 296.708 69.1931 296.714 69.2177C296.719 69.2422 296.718 69.2676 296.713 69.292C296.707 69.3163 296.696 69.3392 296.68 69.3587C296.664 69.3783 296.645 69.3942 296.622 69.4053C296.623 69.4231 296.62 69.4409 296.614 69.4576C296.607 69.4743 296.598 69.4896 296.586 69.5025Z" fill="white"/>
<path d="M287.166 68.7126L289.123 67.8496C289.123 67.8496 288.381 69.6364 287.166 68.7126Z" fill="#263238"/>
</svg>
