<svg width="43" height="54" viewBox="0 0 43 54" fill="none" xmlns="http://www.w3.org/2000/svg">
<g clip-path="url(#clip0_219_865)">
<mask id="mask0_219_865" style="mask-type:luminance" maskUnits="userSpaceOnUse" x="0" y="0" width="43" height="54">
<path d="M42.547 0H0.0116577V53.5006H42.547V0Z" fill="white"/>
</mask>
<g mask="url(#mask0_219_865)">
<path fill-rule="evenodd" clip-rule="evenodd" d="M32.2853 42.9765C31.8853 43.8772 31.6931 43.1379 31.7853 44.1164C31.8238 44.5321 32.2389 44.8092 32.501 45.1406C35.8014 49.2218 36.5654 49.3273 40.1893 53.1163C40.6508 53.6091 41.4202 53.632 41.9202 53.1699C42.4125 52.7078 42.436 51.9378 41.9817 51.445C38.4584 47.5794 38.3017 46.9505 34.6169 43.2385C34.3247 42.9457 34.1012 42.5222 33.709 42.43C32.7553 42.2143 33.4626 42.5071 32.5167 42.7764C32.4631 42.7072 32.3703 42.7072 32.3088 42.7608C32.2474 42.815 32.2395 42.915 32.2932 42.9765H32.2853Z" fill="#FFADAD"/>
<path fill-rule="evenodd" clip-rule="evenodd" d="M31.7695 53.0481L31.7918 53.0632C32.1539 53.4054 32.0726 53.7018 32.1395 53.7934C32.3244 54.0518 32.4208 53.9229 32.6052 54.1735L32.7679 54.4019H32.7902C32.8492 54.417 32.8938 54.3561 32.9528 54.326C33.4704 54.0446 33.9439 53.7024 34.4096 53.3072C36.3105 51.6877 37.7968 49.482 39.4392 47.6649C40.2748 46.6991 41.3695 45.9466 42.1311 44.9122C42.3088 44.6766 42.5377 44.4561 42.545 44.1591C42.5522 43.756 42.5154 44.0753 42.3528 43.7102C42.5082 43.5277 42.4859 43.2463 42.3082 43.0788C42.1232 42.9191 41.8497 42.942 41.6943 43.1246C41.3243 43.0107 41.6352 42.9191 41.243 42.9728C40.9918 43.0107 40.8068 43.2083 40.5996 43.368C39.5789 44.1741 38.662 45.1471 37.7817 46.1057C36.3322 47.7101 34.8753 49.4742 33.374 51.1165C33.0113 51.5118 32.6636 51.9148 32.3088 52.3028C32.1238 52.5083 31.8135 52.6372 31.7834 52.9113L31.7611 53.0409L31.7683 53.0487L31.7695 53.0481Z" fill="#FFADAD"/>
<path fill-rule="evenodd" clip-rule="evenodd" d="M18.63 14.8398C19.4747 14.4651 18.9138 15.2959 19.553 14.4247C19.6169 14.3434 19.6169 14.2121 19.638 14.0904C19.8223 12.986 19.8368 11.8413 19.8796 10.7068C19.8295 7.29011 19.9223 10.2049 19.8295 6.27433C19.794 4.92717 19.8651 3.56977 19.6735 2.25274C19.6169 1.86776 19.4958 1.60447 19.3964 1.23997C19.4108 0.834496 19.1831 0.50072 18.9065 0.490478C18.6228 0.480236 18.3884 0.79413 18.3812 1.18936C18.2534 1.71593 18.0974 2.15153 18.0191 2.68834C17.7208 4.67352 17.5913 6.61955 17.5136 8.6457C17.3786 12.3938 17.4088 8.88368 17.4015 12.6317C17.4015 13.1179 17.281 13.6752 17.4654 14.0904C17.9058 15.0832 17.657 14.2319 18.3812 14.8097C18.3739 14.9109 18.4239 14.9923 18.495 15.0025C18.5661 15.0025 18.63 14.9314 18.63 14.8302V14.8404V14.8398Z" fill="#A0C4FF"/>
<path fill-rule="evenodd" clip-rule="evenodd" d="M16.7002 19.1591C16.7002 19.1591 6.44174 19.9573 7.78408 34.038C7.78408 34.1139 8.25281 32.289 8.7595 30.2231C9.67106 26.522 11.7484 23.2144 14.6994 20.7936L16.7002 19.1584V19.1591Z" fill="#D9D9D9"/>
<path d="M38.7512 31.751H20.4959V34.0404H38.7512V31.751Z" fill="#FFADAD"/>
<path d="M34.1723 34.0403H20.4959V36.3297H34.1723V34.0403Z" fill="#A0C4FF"/>
<path fill-rule="evenodd" clip-rule="evenodd" d="M18.8198 1.46645C18.9143 1.55562 19.0403 1.73034 19.1572 1.86409C19.2608 1.98037 19.6885 2.49007 20.2826 3.12027C21.1291 4.01918 22.2901 5.141 23.0733 5.92785C23.2131 6.08871 23.4517 6.10679 23.6137 5.97243C23.7758 5.83386 23.7939 5.59709 23.6589 5.43622C23.0064 4.54214 22.0786 3.21848 21.3225 2.24426C20.7911 1.55562 20.3459 1.05074 20.2513 0.929641C19.6211 0.192803 19.1077 -0.00842701 18.7077 7.76449e-06C18.2528 0.00904503 17.7847 0.330772 17.2268 0.974827C17.0195 1.21642 15.8851 2.54852 14.9669 3.82277C14.3367 4.69456 13.8282 5.53925 13.639 5.92423C13.4902 6.18812 13.5806 6.5231 13.8463 6.67553C14.1119 6.82736 14.4493 6.73337 14.6024 6.46526L18.3432 1.92314C18.5233 1.70865 18.8294 1.60141 18.8204 1.46706L18.8198 1.46645ZM18.7746 1.42609C18.7342 1.39898 18.7023 1.39476 18.689 1.43512C18.6758 1.46645 18.7342 1.43512 18.7746 1.42609Z" fill="#A0C4FF"/>
</g>
<path d="M36.7558 34.0343H33.7168C33.1282 36.7919 31.76 39.3211 29.7133 41.3672C26.913 44.1669 23.2089 45.699 19.2512 45.699C15.3037 45.7093 11.5695 44.1772 8.7788 41.3876C5.9881 38.5975 4.46622 34.8748 4.46622 30.9279C4.46622 26.9811 5.99834 23.2685 8.79929 20.4688V20.4586C11.59 17.6685 15.3037 16.1267 19.2614 16.1267C25.1525 16.1195 30.2435 19.5765 32.6191 24.5693H35.8562C33.2945 17.895 26.8178 13.1438 19.2518 13.1438C14.503 13.1438 10.038 15.0001 6.67914 18.3583C3.3203 21.7159 1.46344 26.1797 1.46344 30.9279C1.46344 35.6761 3.29981 40.1393 6.6689 43.4975C10.038 46.8552 14.503 48.7018 19.2518 48.7018C24.0006 48.7018 28.4656 46.8449 31.8244 43.4873H31.8142C34.4259 40.8761 36.128 37.5962 36.7564 34.0343H36.7558Z" fill="#A0C4FF"/>
<path d="M38.9765 31.7443H35.7153C35.5779 35.7141 33.9994 39.6429 30.981 42.6655C24.6591 48.9958 14.3596 48.9958 8.02752 42.6655C1.69541 36.3352 1.69541 26.0484 8.02752 19.7175L8.01728 19.7073C14.3494 13.3872 24.6488 13.3667 30.981 19.697C32.4269 21.143 33.5415 22.7962 34.3266 24.5627H37.8306C36.8901 21.9479 35.3755 19.4952 33.2849 17.4046C25.6845 9.79581 13.3149 9.80606 5.70434 17.4148C-1.896 25.0134 -1.90624 37.3799 5.70434 44.9785C13.3149 52.577 25.6845 52.577 33.2849 44.9785V44.9887C36.945 41.3244 38.8422 36.5539 38.9765 31.7443Z" fill="#FFADAD"/>
</g>
<defs>
<clipPath id="clip0_219_865">
<rect width="42.5468" height="53.5006" fill="white"/>
</clipPath>
</defs>
</svg>
