<svg width="135" height="135" viewBox="0 0 135 135" fill="none" xmlns="http://www.w3.org/2000/svg">
<ellipse cx="67.2278" cy="67.117" rx="67.2278" ry="67.117" fill="white"/>
<g clip-path="url(#clip0_56_353)">
<path d="M84.4585 49.4931C84.4585 49.4931 86.1375 50.2337 85.0285 51.5208L74.0139 62.2228L68.2168 67.1374L66.2784 65.2023L84.4564 49.4911L84.4585 49.4931Z" fill="#86b4ff"/>
<path d="M74.9132 25.9226L80.0241 28.4756C80.0241 28.4756 80.3497 28.6781 80.0388 29.3688C80.0388 29.3688 77.6559 37.8983 78.0476 43.5066C78.0476 43.5066 77.874 48.714 80.7866 52.0303C80.7866 52.0303 82.6657 55.8633 86.7343 57.8007C86.7343 57.8007 93.3486 62.2347 106.766 58.8668C106.766 58.8668 109.321 59.379 110.933 60.7838C110.933 60.7838 89.9982 68.0456 79.0899 57.1226C79.0899 57.1226 70.0025 48.1359 72.5974 33.4895C72.5974 33.4895 73.8392 27.5796 74.9091 25.9267L74.9132 25.9226Z" fill="#86b4ff"/>
<path d="M48.9453 85.3731C48.9453 85.3731 47.2663 84.6325 48.3752 83.3454L59.3898 72.6434L64.3398 67.1377L66.2782 69.0728L48.9473 85.3751L48.9453 85.3731Z" fill="#63338A"/>
<path d="M59.3068 108.129L54.1959 105.576C54.1959 105.576 53.8703 105.373 54.1812 104.683C54.1812 104.683 56.5641 96.1533 56.1724 90.545C56.1724 90.545 56.346 85.3376 53.4334 82.0212C53.4334 82.0212 51.5543 78.1883 47.4857 76.2509C47.4857 76.2509 40.8714 71.8169 27.454 75.1847C27.454 75.1847 24.8989 74.6726 23.2872 73.2677C23.2872 73.2677 44.2218 66.006 55.1301 76.929C55.1301 76.929 64.2175 85.9156 61.6226 100.562C61.6226 100.562 60.3808 106.472 59.3109 108.125L59.3068 108.129Z" fill="#63338A"/>
<path d="M84.5697 85.059C84.5697 85.059 83.8294 86.7345 82.5392 85.6262L71.809 74.6195L66.2785 69.0728L68.2168 67.1377L84.5717 85.0569L84.5697 85.059Z" fill="#39BBD5"/>
<path d="M108.29 75.6706L105.737 80.7706C105.737 80.7706 105.535 81.0954 104.843 80.7845C104.843 80.7845 96.2967 78.3974 90.6796 78.783C90.6796 78.783 85.4634 78.6048 82.1443 81.5094C82.1443 81.5094 78.3068 83.3817 76.3701 87.4417C76.3701 87.4417 71.9351 94.041 75.3213 107.439C75.3213 107.439 74.8107 109.99 73.4051 111.598C73.4051 111.598 66.1114 90.6905 77.042 79.8107C77.042 79.8107 86.0349 70.7468 100.708 73.3514C100.708 73.3514 106.629 74.5968 108.285 75.6665L108.29 75.6706Z" fill="#39BBD5"/>
<path d="M48.5893 49.5626C48.5893 49.5626 49.3575 47.9149 50.5763 48.9519L60.659 59.3122L66.2784 65.2022L64.34 67.1374L48.5872 49.5646L48.5893 49.5626Z" fill="#86BC28"/>
<path d="M25.1145 59.1953L27.6669 54.0953C27.6669 54.0953 27.8694 53.7705 28.5615 54.0814C28.5615 54.0814 37.1074 56.4685 42.7245 56.0829C42.7245 56.0829 47.9407 56.2611 51.2598 53.3565C51.2598 53.3565 55.0973 51.4842 57.034 47.4241C57.034 47.4241 61.469 40.8249 58.0828 27.4264C58.0828 27.4264 58.5934 24.8761 59.999 23.2683C59.999 23.2683 67.2927 44.1754 56.3621 55.0552C56.3621 55.0552 47.3692 64.1191 32.6962 61.5145C32.6962 61.5145 26.7753 60.2691 25.1186 59.1994L25.1145 59.1953Z" fill="#86BC28"/>
<path d="M44.3657 47.4178C45.6575 48.7074 47.7508 48.7084 49.0414 47.42C50.3319 46.1316 50.3309 44.0417 49.0391 42.7521C47.7474 41.4624 45.654 41.4615 44.3635 42.7499C43.0729 44.0383 43.0739 46.1282 44.3657 47.4178Z" fill="#86BC28"/>
<path d="M86.3374 49.7352C87.6292 51.0248 89.7225 51.0258 91.013 49.7374C92.3036 48.449 92.3026 46.3591 91.0108 45.0695C89.7191 43.7798 87.6257 43.7788 86.3352 45.0672C85.0446 46.3556 85.0456 48.4456 86.3374 49.7352Z" fill="#86b4ff"/>
<path d="M41.8891 89.4412C43.1809 90.7309 45.2743 90.7319 46.5648 89.4435C47.8553 88.1551 47.8543 86.0652 46.5626 84.7755C45.2708 83.4859 43.1775 83.4849 41.8869 84.7733C40.5964 86.0617 40.5974 88.1516 41.8891 89.4412Z" fill="#63338A"/>
<path d="M83.4057 92.408C84.6975 93.6977 86.7909 93.6987 88.0814 92.4103C89.3719 91.1219 89.3709 89.0319 88.0792 87.7423C86.7874 86.4527 84.6941 86.4517 83.4035 87.7401C82.113 89.0285 82.114 91.1184 83.4057 92.408Z" fill="#39BBD5"/>
<path d="M66.2782 65.2031V67.1383H64.3398L66.2782 65.2031Z" fill="#86BC28"/>
<path d="M66.2785 69.0732V67.1381H68.2168L66.2785 69.0732Z" fill="#39BBD5"/>
<path d="M64.3398 67.1381H66.2782V69.0732L64.3398 67.1381Z" fill="#63338A"/>
<path d="M68.2168 67.1383L66.2785 67.1383L66.2785 65.2031L68.2168 67.1383Z" fill="#86b4ff"/>
</g>
<defs>
<clipPath id="clip0_56_353">
<rect width="74.0422" height="72.8209" transform="matrix(0.70769 0.706523 -0.70769 0.706523 66.6768 15.1455)" fill="white"/>
</clipPath>
</defs>
</svg>
