<svg width="707" height="888" viewBox="0 0 707 888" fill="none" xmlns="http://www.w3.org/2000/svg">
<mask id="mask0_219_756" style="mask-type:luminance" maskUnits="userSpaceOnUse" x="0" y="0" width="707" height="888">
<path d="M706.19 0H0.189941V888H706.19V0Z" fill="white"/>
</mask>
<g mask="url(#mask0_219_756)">
<path fill-rule="evenodd" clip-rule="evenodd" d="M535.87 713.32C529.23 728.27 526.04 716 527.57 732.24C528.21 739.14 535.1 743.74 539.45 749.24C594.23 816.98 606.91 818.73 667.06 881.62C674.72 889.8 687.49 890.18 695.79 882.51C703.96 874.84 704.35 862.06 696.81 853.88C638.33 789.72 635.73 779.28 574.57 717.67C569.72 712.81 566.01 705.78 559.5 704.25C543.67 700.67 555.41 705.53 539.71 710C538.82 708.85 537.28 708.85 536.26 709.74C535.24 710.64 535.11 712.3 536 713.32H535.87Z" fill="#FFADAD"/>
<path fill-rule="evenodd" clip-rule="evenodd" d="M527.31 880.49L527.68 880.74C533.69 886.42 532.34 891.34 533.45 892.86C536.52 897.15 538.12 895.01 541.18 899.17L543.88 902.96H544.25C545.23 903.21 545.97 902.2 546.95 901.7C555.54 897.03 563.4 891.35 571.13 884.79C602.68 857.91 627.35 821.3 654.61 791.14C668.48 775.11 686.65 762.62 699.29 745.45C702.24 741.54 706.04 737.88 706.16 732.95C706.28 726.26 705.67 731.56 702.97 725.5C705.55 722.47 705.18 717.8 702.23 715.02C699.16 712.37 694.62 712.75 692.04 715.78C685.9 713.89 691.06 712.37 684.55 713.26C680.38 713.89 677.31 717.17 673.87 719.82C656.93 733.2 641.71 749.35 627.1 765.26C603.04 791.89 578.86 821.17 553.94 848.43C547.92 854.99 542.15 861.68 536.26 868.12C533.19 871.53 528.04 873.67 527.54 878.22L527.17 880.37L527.29 880.5L527.31 880.49Z" fill="#FFADAD"/>
<path fill-rule="evenodd" clip-rule="evenodd" d="M309.22 246.31C323.24 240.09 313.93 253.88 324.54 239.42C325.6 238.07 325.6 235.89 325.95 233.87C329.01 215.54 329.249 196.54 329.959 177.71C329.129 121 330.67 169.38 329.13 104.14C328.54 81.78 329.72 59.25 326.54 37.39C325.6 31 323.59 26.63 321.94 20.58C322.18 13.85 318.4 8.31 313.81 8.14C309.1 7.97 305.21 13.18 305.09 19.74C302.97 28.48 300.379 35.71 299.079 44.62C294.129 77.57 291.98 109.87 290.69 143.5C288.45 205.71 288.949 147.45 288.829 209.66C288.829 217.73 286.83 226.98 289.89 233.87C297.2 250.35 293.069 236.22 305.09 245.81C304.969 247.49 305.8 248.84 306.98 249.01C308.16 249.01 309.22 247.83 309.22 246.15V246.32V246.31Z" fill="#A0C4FF"/>
<path fill-rule="evenodd" clip-rule="evenodd" d="M277.19 318C277.19 318 106.92 331.25 129.2 564.96C129.2 566.22 136.98 535.93 145.39 501.64C160.52 440.21 195 385.31 243.98 345.13L277.19 317.99V318Z" fill="#D9D9D9"/>
<path d="M643.189 527H340.189V565H643.189V527Z" fill="#FFADAD"/>
<path d="M567.189 565H340.189V603H567.189V565Z" fill="#A0C4FF"/>
<path fill-rule="evenodd" clip-rule="evenodd" d="M312.37 24.34C313.94 25.82 316.03 28.72 317.97 30.94C319.69 32.87 326.79 41.33 336.65 51.79C350.7 66.71 369.97 85.33 382.97 98.39C385.29 101.06 389.25 101.36 391.94 99.13C394.63 96.83 394.93 92.9 392.69 90.23C381.86 75.39 366.46 53.42 353.91 37.25C345.09 25.82 337.7 17.44 336.13 15.43C325.67 3.2 317.15 -0.14 310.51 1.99769e-07C302.96 0.15 295.19 5.49 285.93 16.18C282.49 20.19 263.66 42.3 248.42 63.45C237.96 77.92 229.52 91.94 226.38 98.33C223.91 102.71 225.41 108.27 229.82 110.8C234.23 113.32 239.83 111.76 242.37 107.31L304.46 31.92C307.45 28.36 312.53 26.58 312.38 24.35L312.37 24.34ZM311.62 23.67C310.95 23.22 310.42 23.15 310.2 23.82C309.98 24.34 310.95 23.82 311.62 23.67Z" fill="#A0C4FF"/>
</g>
<path d="M610.07 564.9H559.63C549.86 610.67 527.15 652.65 493.18 686.61C446.7 733.08 385.22 758.51 319.53 758.51C254.01 758.68 192.03 733.25 145.71 686.95C99.39 640.64 74.13 578.85 74.13 513.34C74.13 447.83 99.56 386.21 146.05 339.74V339.57C192.37 293.26 254.01 267.67 319.7 267.67C417.48 267.55 501.98 324.93 541.41 407.8H595.14C552.62 297.02 445.12 218.16 319.54 218.16C240.72 218.16 166.61 248.97 110.86 304.71C55.11 360.44 24.29 434.53 24.29 513.34C24.29 592.15 54.77 666.23 110.69 721.97C166.61 777.7 240.72 808.35 319.54 808.35C398.36 808.35 472.47 777.53 528.22 721.8H528.05C571.4 678.46 599.65 624.02 610.08 564.9H610.07Z" fill="#A0C4FF"/>
<path d="M646.93 526.89H592.8C590.52 592.78 564.32 657.99 514.22 708.16C409.29 813.23 238.34 813.23 133.24 708.16C28.1402 603.09 28.1402 432.35 133.24 327.27L133.07 327.1C238.17 222.2 409.12 221.86 514.22 326.93C538.22 350.93 556.72 378.37 569.75 407.69H627.91C612.3 364.29 587.16 323.58 552.46 288.88C426.31 162.59 221 162.76 94.6802 289.05C-31.4698 415.17 -31.6398 620.43 94.6802 746.55C221 872.67 426.31 872.67 552.46 746.55V746.72C613.21 685.9 644.7 606.72 646.93 526.89Z" fill="#FFADAD"/>
</svg>
