<svg width="520" height="520" viewBox="0 0 520 520" fill="none" xmlns="http://www.w3.org/2000/svg">
<rect width="520" height="520" fill="#112C54"/>
<path d="M260 85C163.502 85 85 163.517 85 260C85 356.498 163.502 435 260 435C356.498 435 435 356.498 435 260C435 163.517 356.498 85 260 85ZM346.377 192.698L273.46 367.698C271.185 373.167 265.847 376.667 259.999 376.667C259.445 376.667 258.891 376.638 258.337 376.579C251.876 375.836 246.685 370.892 245.62 364.49L232.743 287.257L155.524 274.394C149.107 273.315 144.179 268.138 143.435 261.678C142.677 255.217 146.308 249.048 152.302 246.54L327.302 173.623C332.713 171.348 339.041 172.588 343.227 176.773C347.398 180.958 348.652 187.244 346.377 192.698Z" fill="white"/>
</svg>
